<svg width="100" height="100" xmlns="http://www.w3.org/2000/svg">
 <g id="Layer_1">
  <title>Layer 1</title>
  <path stroke="#000" id="svg_3" d="m40.49305,77.862c-2.61033,-1.66214 -2.26786,-2.66866 4.07863,-11.98603c3.20467,-4.70479 5.82665,-8.69089 5.82665,-8.85799c0,-0.16709 -8.84919,-0.30381 -19.66493,-0.30381l-19.66493,0l0,-8.8116l0,-8.8116l19.82079,0c15.28294,0 19.65017,-0.26545 19.07565,-1.15943c-0.40982,-0.63768 -3.20539,-4.86923 -6.21238,-9.40342c-5.66821,-8.54706 -5.66643,-10.83917 0.00876,-11.54964c2.82433,-0.35356 46.79579,26.81243 48.30718,29.84467c-14.64651,10.82675 -32.15405,22.15958 -48.28135,32.15191c-0.85036,0 -2.33267,-0.50087 -3.29407,-1.11305l0,0z" fill="#000000"/>
 </g>

</svg>